<svg id="instagram_1_" data-name="instagram (1)" xmlns="http://www.w3.org/2000/svg" width="35" height="35" viewBox="0 0 35 35">
  <path id="Path_14" data-name="Path 14" d="M17.5,3.153c4.672,0,5.227.017,7.071.1a7.72,7.72,0,0,1,5.262,1.912,7.67,7.67,0,0,1,1.912,5.262c.085,1.845.1,2.4.1,7.071s-.017,5.227-.1,7.071a7.758,7.758,0,0,1-1.912,5.262,7.668,7.668,0,0,1-5.262,1.912c-1.845.085-2.4.1-7.071.1s-5.227-.017-7.071-.1a7.814,7.814,0,0,1-5.262-1.912,7.713,7.713,0,0,1-1.912-5.262c-.085-1.845-.1-2.4-.1-7.071s.018-5.227.1-7.071A7.785,7.785,0,0,1,5.167,5.167a7.687,7.687,0,0,1,5.262-1.912c1.845-.085,2.4-.1,7.071-.1M17.5,0c-4.753,0-5.349.02-7.216.1A10.816,10.816,0,0,0,2.937,2.937,10.8,10.8,0,0,0,.105,10.284C.02,12.151,0,12.747,0,17.5s.02,5.349.1,7.216a10.827,10.827,0,0,0,2.832,7.347,10.807,10.807,0,0,0,7.347,2.832c1.867.085,2.463.105,7.216.105s5.349-.02,7.216-.105a10.822,10.822,0,0,0,7.347-2.832,10.793,10.793,0,0,0,2.832-7.347C34.98,22.849,35,22.253,35,17.5s-.02-5.349-.105-7.216a10.82,10.82,0,0,0-2.832-7.347A10.816,10.816,0,0,0,24.716.1C22.849.02,22.253,0,17.5,0Z" transform="translate(0 0)" fill="#333"/>
  <path id="Path_15" data-name="Path 15" d="M14.824,5.838a8.986,8.986,0,1,0,8.986,8.986A8.987,8.987,0,0,0,14.824,5.838Zm0,14.82a5.833,5.833,0,1,1,5.833-5.833A5.834,5.834,0,0,1,14.824,20.658Z" transform="translate(2.676 2.676)" fill="#333"/>
  <circle id="Ellipse_3" data-name="Ellipse 3" cx="2.1" cy="2.1" r="2.1" transform="translate(24.742 6.058)" fill="#333"/>
</svg>
