<svg xmlns="http://www.w3.org/2000/svg" width="35" height="34.999" viewBox="0 0 35 34.999">
  <g id="linkedin" transform="translate(0 -1.782)">
    <path id="Path_2520" d="M29.822,31.6H24.636V23.483c0-1.937-.034-4.429-2.7-4.429-2.7,0-3.115,2.109-3.115,4.289V31.6H13.639V14.9h4.979v2.282h.069a5.459,5.459,0,0,1,4.912-2.7c5.257,0,6.225,3.458,6.225,7.954ZM7.787,12.619a3.01,3.01,0,1,1,3.01-3.01,3.009,3.009,0,0,1-3.01,3.01h0M10.379,31.6H5.188V14.9h5.191ZM32.408,1.784H2.582A2.555,2.555,0,0,0,0,4.307V34.255A2.555,2.555,0,0,0,2.582,36.78H32.408A2.561,2.561,0,0,0,35,34.255V4.305a2.56,2.56,0,0,0-2.592-2.523" transform="translate(0 0)" fill="#333"/>
  </g>
</svg>
