<svg xmlns="http://www.w3.org/2000/svg" width="35" height="35" viewBox="0 0 35 35">
  <g id="WA_Logo" transform="translate(-0.057)">
    <g id="Group_7" data-name="Group 7" transform="translate(0.057)">
      <path id="Path_12" data-name="Path 12" d="M29.959,5.087A17.444,17.444,0,0,0,.2,17.343a17.248,17.248,0,0,0,2.327,8.671L.057,35l9.238-2.412A17.475,17.475,0,0,0,17.622,34.7h.007A17.412,17.412,0,0,0,35.057,17.356,17.191,17.191,0,0,0,29.959,5.087ZM17.631,31.77h-.006a14.5,14.5,0,0,1-7.372-2.01l-.529-.312L4.242,30.879l1.464-5.32-.344-.545a14.321,14.321,0,0,1-2.214-7.671A14.5,14.5,0,0,1,27.878,7.155a14.3,14.3,0,0,1,4.238,10.2A14.472,14.472,0,0,1,17.631,31.77Zm7.945-10.8c-.435-.217-2.576-1.266-2.976-1.41s-.689-.217-.98.216-1.124,1.41-1.379,1.7-.508.325-.944.108a11.9,11.9,0,0,1-3.5-2.151,13.055,13.055,0,0,1-2.422-3c-.254-.435-.026-.668.19-.884.2-.194.435-.506.654-.76a2.877,2.877,0,0,0,.438-.722.793.793,0,0,0-.037-.76c-.11-.216-.98-2.349-1.342-3.217-.353-.846-.712-.731-.98-.744s-.544-.015-.835-.015a1.6,1.6,0,0,0-1.161.543,4.856,4.856,0,0,0-1.524,3.615,8.413,8.413,0,0,0,1.777,4.483c.217.289,3.07,4.667,7.438,6.544a25.273,25.273,0,0,0,2.482.913,6.013,6.013,0,0,0,2.743.172,4.485,4.485,0,0,0,2.94-2.061,3.589,3.589,0,0,0,.254-2.061C26.3,21.3,26.011,21.191,25.576,20.974Z" transform="translate(-0.057)" fill="#333" fill-rule="evenodd"/>
    </g>
  </g>
</svg>
